<svg xmlns="http://www.w3.org/2000/svg" width="17" height="16" viewBox="0 0 17 16" fill="none">
  
  <path fill-rule="evenodd" clip-rule="evenodd" d="M12.8831 5.03553C13.017 5.16949 13.0923 5.35117 13.0923 5.54061C13.0923 5.73005 13.017 5.91173 12.8831 6.04569L10.3577 8.57107L12.8831 11.0964C13.017 11.2304 13.0923 11.4121 13.0923 11.6015C13.0923 11.791 13.017 11.9726 12.8831 12.1066C12.7491 12.2406 12.5674 12.3158 12.378 12.3158C12.1886 12.3158 12.0069 12.2406 11.8729 12.1066L9.34753 9.58122L6.82215 12.1066C6.6882 12.2406 6.50652 12.3158 6.31708 12.3158C6.12764 12.3158 5.94595 12.2406 5.812 12.1066C5.67805 11.9726 5.60279 11.791 5.60279 11.6015C5.60279 11.4121 5.67805 11.2304 5.812 11.0964L8.33738 8.57107L5.812 6.04569C5.67805 5.91173 5.60279 5.73005 5.60279 5.54061C5.60279 5.35117 5.67805 5.16949 5.812 5.03553C5.94595 4.90158 6.12764 4.82632 6.31708 4.82632C6.50652 4.82632 6.6882 4.90158 6.82215 5.03553L9.34753 7.56091L11.8729 5.03553C12.0069 4.90158 12.1886 4.82632 12.378 4.82632C12.5674 4.82632 12.7491 4.90158 12.8831 5.03553Z" fill="#10111E"/>
</svg>