<svg xmlns="http://www.w3.org/2000/svg" width="21" height="21" viewBox="0 0 21 21" fill="none">
  <rect width="20" height="20" transform="translate(0.875 0.461426)" fill="white"/>
  <path d="M10.875 12.9614C12.2557 12.9614 13.375 11.8421 13.375 10.4614C13.375 9.08071 12.2557 7.96143 10.875 7.96143C9.49429 7.96143 8.375 9.08071 8.375 10.4614C8.375 11.8421 9.49429 12.9614 10.875 12.9614Z" stroke="#0C0D17" stroke-width="0.8"/>
  <path d="M12.3462 2.2548C12.0399 2.12793 11.6516 2.12793 10.875 2.12793C10.0985 2.12793 9.7102 2.12793 9.40387 2.2548C8.99551 2.42395 8.67105 2.74841 8.5019 3.15679C8.42468 3.34321 8.39446 3.56001 8.38263 3.87625C8.36526 4.341 8.12692 4.77117 7.72415 5.00371C7.3214 5.23623 6.8297 5.22755 6.41853 5.01023C6.13875 4.86235 5.93588 4.78011 5.73582 4.75378C5.29757 4.69608 4.85436 4.81484 4.50367 5.08393C4.24066 5.28575 4.04651 5.62201 3.65823 6.29454C3.26995 6.96707 3.07581 7.30333 3.03253 7.63202C2.97484 8.07026 3.0936 8.51348 3.36269 8.86418C3.48551 9.02426 3.65812 9.15876 3.92603 9.3271C4.31987 9.5746 4.57328 9.99618 4.57326 10.4613C4.57323 10.9263 4.31983 11.3478 3.92602 11.5953C3.65808 11.7637 3.48544 11.8983 3.36261 12.0583C3.09351 12.409 2.97476 12.8522 3.03246 13.2904C3.07572 13.6191 3.26986 13.9554 3.65815 14.6279C4.04644 15.3004 4.24058 15.6368 4.50359 15.8385C4.85427 16.1076 5.29749 16.2263 5.73574 16.1687C5.93578 16.1423 6.13864 16.0601 6.4184 15.9123C6.8296 15.6949 7.32134 15.6863 7.72412 15.9188C8.1269 16.1513 8.36526 16.5815 8.38263 17.0463C8.39446 17.3625 8.42468 17.5793 8.5019 17.7658C8.67105 18.1741 8.99551 18.4986 9.40387 18.6678C9.7102 18.7946 10.0985 18.7946 10.875 18.7946C11.6516 18.7946 12.0399 18.7946 12.3462 18.6678C12.7545 18.4986 13.079 18.1741 13.2481 17.7658C13.3254 17.5793 13.3556 17.3625 13.3675 17.0463C13.3848 16.5815 13.6231 16.1513 14.0259 15.9188C14.4286 15.6862 14.9204 15.6949 15.3316 15.9123C15.6114 16.0601 15.8142 16.1423 16.0142 16.1686C16.4525 16.2263 16.8957 16.1076 17.2464 15.8385C17.5094 15.6367 17.7035 15.3004 18.0918 14.6278C18.4801 13.9553 18.6743 13.6191 18.7175 13.2904C18.7752 12.8522 18.6565 12.4089 18.3874 12.0583C18.2645 11.8982 18.0919 11.7636 17.824 11.5953C17.4302 11.3478 17.1768 10.9263 17.1768 10.4612C17.1768 9.9961 17.4302 9.57468 17.824 9.32726C18.092 9.15885 18.2646 9.02435 18.3875 8.86418C18.6565 8.51354 18.7753 8.07032 18.7176 7.63207C18.6744 7.30339 18.4802 6.96712 18.0919 6.2946C17.7036 5.62207 17.5095 5.2858 17.2465 5.08399C16.8958 4.8149 16.4525 4.69614 16.0143 4.75384C15.8143 4.78017 15.6115 4.8624 15.3316 5.01026C14.9205 5.22759 14.4287 5.23628 14.026 5.00373C13.6231 4.77119 13.3848 4.34098 13.3675 3.87621C13.3556 3.56 13.3254 3.3432 13.2481 3.15679C13.079 2.74841 12.7545 2.42395 12.3462 2.2548Z" stroke="#0C0D17" stroke-width="0.8"/>
</svg>