<svg xmlns="http://www.w3.org/2000/svg" width="16" height="13" viewBox="0 0 16 13" fill="none">
  <path d="M10.9585 9.59707H1.33622L4.03935 12.3019C4.16324 12.4325 4.16 12.638 4.03284 12.762C3.90567 12.8827 3.70676 12.8827 3.57959 12.762L0.318886 9.49918C0.191719 9.37194 0.191719 9.16638 0.318886 9.03913L3.57959 5.77633C3.71003 5.65235 3.91545 5.65559 4.03935 5.78284C4.16 5.91009 4.16 6.10913 4.03935 6.23638L1.33622 8.94452H10.9585C12.9508 8.94452 14.5714 7.18913 14.5714 5.02917C14.5714 2.86921 12.9508 1.11381 10.9585 1.11381H8.05975C7.89673 1.11381 7.75 0.996354 7.72716 0.836467C7.69782 0.634184 7.85433 0.461235 8.04997 0.461235H10.9585C13.3095 0.461235 15.2235 2.51028 15.2235 5.02914C15.2235 7.54799 13.3095 9.59707 10.9585 9.59707Z" fill="#0C0D17"/>
</svg>